<svg xmlns="http://www.w3.org/2000/svg"  viewBox="0 0 3333 3333" shape-rendering="geometricPrecision" text-rendering="geometricPrecision" image-rendering="optimizeQuality" fill-rule="evenodd" clip-rule="evenodd"><path d="M1465 1354h322v165h5c45-81 155-165 318-165 340 0 403 212 403 488v561h-336v-498c0-119-2-271-175-271-175 0-202 129-202 263v506h-336V1354zM1667 0c460 0 877 187 1179 488 302 302 488 718 488 1179 0 460-187 877-488 1179-302 302-718 488-1179 488-460 0-877-187-1179-488C186 2544 0 2128 0 1667c0-460 187-877 488-1179C790 186 1206 0 1667 0zm1093 573c-280-280-666-453-1093-453S853 293 574 573c-280 280-453 666-453 1093s173 814 453 1093c280 280 666 453 1093 453s814-173 1093-453c280-280 453-666 453-1093s-173-814-453-1093zm-1528 490c0 97-78 175-175 175s-175-78-175-175 78-175 175-175 175 78 175 175zm-350 291h350v1049H882V1354z"/></svg>